<svg xmlns="http://www.w3.org/2000/svg" viewBox="0 0 79.78 15.54"><defs><style>.cls-1{fill:#616161;}</style></defs><g id="레이어_2" data-name="레이어 2"><g id="Layer_1" data-name="Layer 1"><path class="cls-1" d="M5.85,10.52c1.21,0,2.38-.15,3.51-.29l.18,1.6a50.48,50.48,0,0,1-9.27.59L0,10.62c1.09,0,2.35,0,3.65,0V8.42A3.75,3.75,0,0,1,.52,4.72,3.91,3.91,0,0,1,4.72.91,3.92,3.92,0,0,1,8.94,4.72,3.74,3.74,0,0,1,5.85,8.4ZM4.72,6.65A1.9,1.9,0,0,0,6.79,4.72,1.88,1.88,0,0,0,4.72,2.81a1.87,1.87,0,0,0-2,1.91A1.88,1.88,0,0,0,4.72,6.65Zm9.69,1.26h-2v7.56H10.16V0h2.22V6.08h2Z"/><path class="cls-1" d="M18.76,10a32.93,32.93,0,0,0,6.3-.46l.21,1.83a37,37,0,0,1-7.36.47H16.55V1.39H24v1.8H18.76ZM28.44,0V15.54H26.22V0Z"/><path class="cls-1" d="M45.09,11.84v1.8h-14v-1.8Zm-13.46-4c3.41-.54,5.24-2.64,5.26-4.78H32.24V1.33H43.9V3.07H39.24c0,2.14,1.85,4.19,5.35,4.71l-.84,1.75a7.63,7.63,0,0,1-5.67-3.6,7.58,7.58,0,0,1-5.59,3.68Z"/><path class="cls-1" d="M55.15,4.67c0,2.34.79,4.71,3,5.86L57,12.18a6.08,6.08,0,0,1-2.82-3.41,6.39,6.39,0,0,1-2.83,3.76l-1.24-1.66c2.2-1.28,3-3.81,3-6.2V4.42H50.58V2.62h2.47V.52h2.1v2.1H57.6v1.8H55.15ZM63.74,0V15.47h-2.1V7.75H60.38v7H58.31V.25h2.07V5.93h1.26V0Z"/><path class="cls-1" d="M79.78,7.36V9.11h-14V7.36h3.14V5.49A2.51,2.51,0,0,1,67.2,3.23c0-1.85,2.18-3,5.59-3s5.61,1.13,5.61,3a2.53,2.53,0,0,1-1.8,2.28V7.36Zm-1.65,5.32c0,1.8-2,2.83-5.37,2.83s-5.36-1-5.36-2.83,2-2.8,5.36-2.8S78.13,10.89,78.13,12.68ZM69.48,3.23c0,.84,1.21,1.27,3.31,1.27s3.33-.43,3.33-1.27-1.21-1.3-3.33-1.3S69.48,2.35,69.48,3.23Zm6.4,9.45c0-.79-1.06-1.12-3.12-1.12s-3.13.33-3.13,1.12,1.06,1.15,3.13,1.15S75.88,13.47,75.88,12.68ZM71.16,7.36h3.23V6.08a15.72,15.72,0,0,1-1.6.09,13.58,13.58,0,0,1-1.63-.1Z"/></g></g></svg>