<?xml version="1.0" encoding="utf-8"?>
<!-- Generator: Adobe Illustrator 25.0.0, SVG Export Plug-In . SVG Version: 6.00 Build 0)  -->
<svg version="1.1" id="레이어_1" xmlns="http://www.w3.org/2000/svg" xmlns:xlink="http://www.w3.org/1999/xlink" x="0px"
	 y="0px" viewBox="0 0 79.6 20.3" style="enable-background:new 0 0 79.6 20.3;" xml:space="preserve">
<style type="text/css">
	.st0{enable-background:new    ;}
	.st1{fill:#414141;}
</style>
<g id="레이어_1-2">
	<g class="st0">
		<path class="st1" d="M3.8,10.9v4.5H1.1V2.6h5c1,0,1.8,0.2,2.5,0.5S10,4,10.4,4.6c0.4,0.6,0.6,1.4,0.6,2.2c0,1.3-0.4,2.2-1.3,3
			s-2,1.1-3.6,1.1H3.8z M3.8,8.8h2.4c0.7,0,1.2-0.2,1.6-0.5s0.5-0.8,0.5-1.4c0-0.6-0.2-1.1-0.6-1.5S6.8,4.8,6.2,4.7H3.8V8.8z"/>
		<path class="st1" d="M17.5,10.7h-2.1v4.7h-2.6V2.6h4.8c1.5,0,2.7,0.3,3.5,1s1.2,1.6,1.2,2.9c0,0.9-0.2,1.6-0.6,2.2
			c-0.4,0.6-1,1-1.7,1.4l2.8,5.2v0.1h-2.8L17.5,10.7z M15.4,8.6h2.1c0.7,0,1.2-0.2,1.5-0.5c0.4-0.3,0.5-0.8,0.5-1.4
			c0-0.6-0.2-1.1-0.5-1.4s-0.9-0.5-1.6-0.5h-2.1V8.6z"/>
		<path class="st1" d="M34.8,9.3c0,1.3-0.2,2.4-0.7,3.3s-1.1,1.7-1.9,2.2s-1.8,0.8-2.9,0.8c-1.1,0-2-0.3-2.8-0.8s-1.5-1.2-1.9-2.2
			c-0.5-0.9-0.7-2-0.7-3.3V8.7c0-1.3,0.2-2.4,0.7-3.3c0.5-1,1.1-1.7,1.9-2.2s1.8-0.8,2.8-0.8s2,0.3,2.8,0.8s1.5,1.2,1.9,2.2
			c0.5,1,0.7,2.1,0.7,3.3V9.3z M32.1,8.7c0-1.3-0.2-2.4-0.7-3.1s-1.2-1-2.1-1c-0.9,0-1.6,0.3-2,1s-0.7,1.7-0.7,3v0.6
			c0,1.3,0.2,2.3,0.7,3s1.2,1.1,2.1,1.1c0.9,0,1.6-0.3,2-1c0.5-0.7,0.7-1.7,0.7-3V8.7z"/>
		<path class="st1" d="M46.7,11.1c-0.1,1.4-0.6,2.5-1.5,3.3c-0.9,0.8-2.1,1.2-3.6,1.2c-1.6,0-2.9-0.6-3.9-1.7s-1.4-2.6-1.4-4.5V8.6
			c0-1.2,0.2-2.3,0.7-3.3s1.1-1.7,1.9-2.2c0.8-0.5,1.7-0.8,2.8-0.8c1.5,0,2.7,0.4,3.6,1.2s1.4,1.9,1.6,3.3h-2.6
			c-0.1-0.8-0.3-1.4-0.7-1.8c-0.4-0.4-1-0.6-1.8-0.6c-0.9,0-1.5,0.3-2,0.9S39,7.1,39,8.5v1c0,1.4,0.2,2.4,0.6,3s1.1,1,2,1
			c0.8,0,1.4-0.2,1.8-0.6c0.4-0.4,0.6-0.9,0.7-1.7H46.7z"/>
		<path class="st1" d="M56.1,9.9h-5.1v3.4H57v2.1h-8.6V2.6H57v2.1h-5.9v3h5.1V9.9z"/>
		<path class="st1" d="M65.2,12c0-0.5-0.2-0.9-0.5-1.1c-0.4-0.3-1-0.5-1.9-0.8s-1.6-0.6-2.2-0.9c-1.5-0.8-2.2-1.8-2.2-3.2
			c0-0.7,0.2-1.3,0.6-1.9c0.4-0.5,0.9-1,1.7-1.3c0.7-0.3,1.5-0.5,2.5-0.5c0.9,0,1.7,0.2,2.4,0.5c0.7,0.3,1.3,0.8,1.7,1.4
			c0.4,0.6,0.6,1.3,0.6,2.1h-2.6c0-0.6-0.2-1-0.6-1.4c-0.4-0.3-0.9-0.5-1.6-0.5c-0.6,0-1.1,0.1-1.5,0.4c-0.4,0.3-0.5,0.6-0.5,1.1
			c0,0.4,0.2,0.8,0.6,1c0.4,0.3,1,0.5,1.8,0.8c1.5,0.5,2.6,1,3.3,1.7s1,1.5,1,2.5c0,1.1-0.4,2-1.3,2.6c-0.8,0.6-2,0.9-3.4,0.9
			c-1,0-1.9-0.2-2.7-0.5c-0.8-0.4-1.4-0.9-1.8-1.5c-0.4-0.6-0.6-1.4-0.6-2.2h2.6c0,1.4,0.8,2.1,2.5,2.1c0.6,0,1.1-0.1,1.5-0.4
			C65,12.9,65.2,12.5,65.2,12z"/>
		<path class="st1" d="M76.3,12c0-0.5-0.2-0.9-0.5-1.1c-0.4-0.3-1-0.5-1.9-0.8s-1.6-0.6-2.2-0.9c-1.5-0.8-2.2-1.8-2.2-3.2
			c0-0.7,0.2-1.3,0.6-1.9c0.4-0.5,0.9-1,1.7-1.3c0.7-0.3,1.5-0.5,2.5-0.5c0.9,0,1.7,0.2,2.4,0.5c0.7,0.3,1.3,0.8,1.7,1.4
			c0.4,0.6,0.6,1.3,0.6,2.1h-2.6c0-0.6-0.2-1-0.6-1.4c-0.4-0.3-0.9-0.5-1.6-0.5c-0.6,0-1.1,0.1-1.5,0.4c-0.4,0.3-0.5,0.6-0.5,1.1
			c0,0.4,0.2,0.8,0.6,1c0.4,0.3,1,0.5,1.9,0.8c1.5,0.5,2.6,1,3.3,1.7s1,1.5,1,2.5c0,1.1-0.4,2-1.3,2.6c-0.8,0.6-2,0.9-3.4,0.9
			c-1,0-1.9-0.2-2.7-0.5c-0.8-0.4-1.4-0.9-1.9-1.5c-0.4-0.6-0.6-1.4-0.6-2.2h2.6c0,1.4,0.8,2.1,2.5,2.1c0.6,0,1.1-0.1,1.5-0.4
			C76.1,12.9,76.3,12.5,76.3,12z"/>
	</g>
</g>
</svg>
